<?xml version="1.0" encoding="UTF-8"?><svg id="Layer_1" xmlns="http://www.w3.org/2000/svg" viewBox="0 0 85.58 103.39"><polygon points="66.93 20.06 66.93 13.56 64.77 13.56 63.17 13.56 63.17 9.8 59.99 9.8 59.99 7.14 55.27 7.14 53.35 7.14 53.35 4.11 51.5 4.11 51.5 3.37 47.74 3.37 43.97 3.37 40.2 3.37 40.2 4.11 36.96 4.11 36.96 7.14 33.87 7.14 33.87 9.8 30.11 9.8 30.11 13.56 27.13 13.56 27.13 20.06 26.34 20.06 26.34 21.8 24.85 21.8 24.85 23.83 24.37 23.83 24.37 39.7 24.37 49.76 27.13 49.76 27.13 53.17 30.4 53.17 30.4 46.36 27.63 46.36 27.63 39.7 30.9 39.7 30.9 30.18 33.37 30.18 33.37 27.59 33.87 27.59 33.87 23.83 63.17 23.83 63.17 26.41 63.17 27.59 63.17 29.07 63.17 33.94 63.17 36.6 67.34 36.6 67.34 33.94 70.7 33.94 70.7 27.59 70.7 26.41 70.7 20.06 66.93 20.06"/><polygon points="66.78 67.67 66.78 66.23 60.13 66.23 60.13 62.85 56.54 62.85 56.54 66.23 49.8 66.23 49.8 76.16 43.97 76.16 43.97 69.53 29.75 69.53 29.75 56.27 22.93 56.27 22.93 59.82 20.82 59.82 20.82 61.15 17.41 61.15 17.41 66.23 14 66.23 14 69.53 10.6 69.53 10.6 79.53 14 79.53 14 85.94 17.41 85.94 17.41 90.23 24.23 90.23 24.23 89.26 30.73 89.26 30.73 85.94 34.04 85.94 34.04 82.79 43.97 82.79 43.97 82.78 46.85 82.78 46.85 89.26 48.53 89.26 48.53 100.91 52.12 100.91 52.12 89.26 53.48 89.26 53.48 82.78 53.48 82.63 53.48 79.49 63.19 79.49 63.19 82.63 66.45 82.63 66.45 89.33 70.04 89.33 70.04 74.36 66.78 74.36 66.78 67.67"/><polygon points="53.68 39.7 59.99 39.7 59.99 36.6 53.67 36.6 53.67 37.59 51.56 37.59 51.56 39.7 53.67 39.7 53.68 39.7"/><polygon points="43.52 37.59 38.39 37.59 38.39 39.98 43.52 39.98 44.03 39.98 46.92 39.98 46.92 36.88 43.52 36.88 43.52 37.59"/><polygon points="49.8 50.07 46.92 50.07 46.92 53.17 40.2 53.17 40.2 56.27 56.83 56.27 56.83 53.17 53.2 53.17 53.2 50.07 50.33 50.07 49.8 50.07"/></svg>